<svg width="82" height="31" viewBox="0 0 82 31" fill="none" xmlns="http://www.w3.org/2000/svg">
<path fill-rule="evenodd" clip-rule="evenodd" d="M1.16744 14.9828C1.33771 15.1779 1.5268 15.3557 1.73196 15.5136C1.91209 15.6457 2.10789 15.7549 2.31489 15.8388C2.55912 15.9556 2.81824 16.0382 3.08498 16.0843C3.6429 16.1522 4.20895 16.0946 4.74173 15.9155C5.05752 15.8225 5.35599 15.6784 5.62533 15.4891C5.98774 15.2237 6.2995 14.8953 6.54575 14.5196C6.79258 14.1413 6.97987 13.7274 7.10106 13.2923C7.19816 12.9111 7.25067 12.5198 7.25754 12.1265C7.27288 11.7062 7.27288 11.2061 7.25754 10.8471C7.2422 10.4881 7.19924 10.212 7.19924 10.0555C7.19371 10.0043 7.19996 9.95257 7.2175 9.90418C7.23505 9.85579 7.26344 9.81205 7.30049 9.77632C7.36997 9.69429 7.45299 9.62477 7.54593 9.57076C7.67892 9.51905 7.82051 9.49303 7.96319 9.49406C8.29451 9.46322 8.62348 9.41096 8.94804 9.33759C9.38902 9.22551 9.81921 9.07458 10.2335 8.88658C10.6745 8.68728 11.1001 8.45552 11.5068 8.1932C11.8634 7.97543 12.1756 7.6923 12.4272 7.35869C12.6909 6.98194 12.8976 6.56844 13.0408 6.13146C13.1431 5.79763 13.1918 5.44968 13.185 5.1006C13.2018 4.72647 13.1562 4.35217 13.05 3.99303C12.904 3.56289 12.6918 3.15816 12.4211 2.79342C12.165 2.44686 11.8625 2.13715 11.5221 1.873C11.1498 1.57728 10.7526 1.31448 10.3348 1.08758C9.98272 0.896319 9.61656 0.732212 9.2395 0.596682C8.94331 0.487715 8.63366 0.419592 8.31908 0.39419C7.8299 0.34179 7.33839 0.314142 6.84642 0.311353C6.29723 0.311353 5.73578 0.338965 5.39829 0.311353C5.21471 0.335854 5.02845 0.293374 4.87365 0.191698C4.80317 0.100881 4.70525 0.0352419 4.59446 0.00454726C4.39843 -0.00953026 4.20143 0.00913337 4.01153 0.0597723C3.88352 0.0729983 3.76416 0.130511 3.67404 0.222379C3.64283 0.269322 3.62322 0.323008 3.61682 0.379016C3.61042 0.435023 3.61741 0.49175 3.63723 0.544525C3.67711 0.673384 3.76608 0.811446 3.81211 0.924964C3.83903 0.971605 3.85321 1.02452 3.85321 1.07837C3.85321 1.13223 3.83903 1.18513 3.81211 1.23177C3.6724 1.40298 3.52391 1.56683 3.36724 1.72266C3.11259 2.02947 2.7076 2.5265 2.26887 3.16465C1.75928 3.88565 1.32832 4.65911 0.983353 5.47183C0.653109 6.3201 0.402494 7.19726 0.234747 8.09195C0.118545 8.67465 0.0477672 9.2655 0.0230505 9.85915C-0.0076835 10.453 -0.0076835 11.0479 0.0230505 11.6417C0.0534217 12.16 0.135647 12.6739 0.268495 13.1758C0.373055 13.5627 0.516982 13.938 0.698023 14.2956C0.827546 14.5477 0.98948 14.7819 1.17971 14.992L1.16744 14.9828ZM7.36492 8.23308C7.68473 8.16727 7.99429 8.05893 8.28534 7.91094C8.70033 7.68961 9.08758 7.41978 9.43893 7.10711C9.77288 6.8164 10.0808 6.49714 10.3593 6.15294C10.5915 5.86551 10.7969 5.55741 10.9729 5.23252C11.1427 4.96061 11.268 4.66336 11.3442 4.35199C11.3914 4.07724 11.3617 3.79477 11.2583 3.53589C11.1458 3.25685 10.9905 2.99704 10.7981 2.7658C10.6114 2.53691 10.3885 2.34001 10.1384 2.18287C9.82437 1.98803 9.49131 1.82561 9.14439 1.69812C8.77985 1.55789 8.39974 1.46209 8.01228 1.41279C7.65743 1.37419 7.29944 1.37419 6.94459 1.41279C6.69516 1.42988 6.45284 1.50331 6.23587 1.62755C6.05312 1.75154 5.90946 1.925 5.82168 2.12765C5.74607 2.35266 5.72503 2.59242 5.76032 2.82716C5.77873 3.13397 5.81862 3.59418 5.91066 4.20779C6.0027 4.8214 6.14997 5.60069 6.26042 6.20817C6.37087 6.81564 6.43836 7.24824 6.49972 7.54891C6.52277 7.75082 6.58643 7.94597 6.68688 8.12263C6.71973 8.16775 6.76143 8.20571 6.80943 8.2342C6.85743 8.26268 6.91072 8.28109 6.96607 8.28831C7.09767 8.29696 7.22975 8.28136 7.35571 8.24229L7.36492 8.23308ZM3.17395 4.85822C2.90625 5.1313 2.67896 5.44124 2.49898 5.77864C2.30638 6.19244 2.16522 6.62828 2.07865 7.07643C1.98047 7.51823 1.90377 7.92628 1.82707 8.32513C1.75037 8.72397 1.6798 9.11055 1.61538 9.51553C1.55095 9.92052 1.49879 10.3531 1.47118 10.7765C1.44148 11.186 1.45588 11.5974 1.51413 12.0038C1.58266 12.388 1.69913 12.7622 1.86082 13.1175C2.00205 13.448 2.18786 13.7577 2.41307 14.0379C2.61754 14.2866 2.85857 14.5028 3.12793 14.6791C3.28209 14.7914 3.47185 14.8437 3.66177 14.8264C3.85048 14.7921 4.02826 14.7132 4.18027 14.5963C4.42596 14.4223 4.63455 14.2012 4.79388 13.9458C5.03232 13.5618 5.22195 13.1496 5.35841 12.7186C5.47352 12.3453 5.53952 11.9585 5.55476 11.5681C5.58216 11.1228 5.55641 10.6758 5.47806 10.2366C5.38295 9.65666 5.19887 8.87738 4.99944 8.06434C4.80002 7.25131 4.59446 6.44747 4.46867 5.91977C4.34288 5.39206 4.28765 5.22025 4.28765 5.07605C4.28006 4.95505 4.24207 4.83792 4.1772 4.7355C4.07934 4.58888 3.95808 4.45932 3.81824 4.35199C3.71393 4.28449 3.68325 4.33358 3.60041 4.42562C3.51757 4.51766 3.38871 4.64039 3.18622 4.85822H3.17395Z" fill="black"/>
<path fill-rule="evenodd" clip-rule="evenodd" d="M10.1505 11.7124C10.172 11.8965 10.2027 12.1113 10.2334 12.326C10.2649 12.521 10.2844 12.7177 10.2917 12.9151C10.2943 13.022 10.2689 13.1278 10.218 13.2219C10.2029 13.2584 10.178 13.29 10.1461 13.3133C10.1142 13.3366 10.0764 13.3506 10.037 13.3538C9.89043 13.3512 9.74528 13.3243 9.60751 13.2741C9.40634 13.2087 9.20144 13.1554 8.9939 13.1145C8.82225 13.0753 8.64398 13.0753 8.47233 13.1145C8.37722 13.1575 8.39563 13.2342 8.43245 13.3415C8.47041 13.4697 8.53064 13.5902 8.61039 13.6974C8.69808 13.8069 8.8185 13.8854 8.95402 13.9214C9.11073 13.9592 9.27145 13.9777 9.43263 13.9766C9.61071 13.9724 9.78872 13.9878 9.96341 14.0227C10.2366 14.0837 10.4985 14.1872 10.7396 14.3295C11.0464 14.5074 11.3931 14.7651 11.6938 14.9799C11.9944 15.1947 12.243 15.3695 12.4608 15.5045C12.6537 15.6286 12.8594 15.7314 13.0744 15.8113C13.3032 15.8871 13.5422 15.9275 13.7831 15.931C14.1061 15.9338 14.429 15.9154 14.7496 15.8758C15.0509 15.8444 15.3446 15.7614 15.6178 15.6303C16.0265 15.436 16.4239 15.2189 16.8082 14.9799C17.0675 14.8196 17.3165 14.6434 17.5538 14.4522C17.7286 14.3172 17.8606 14.2159 17.8882 14.2313C17.9158 14.2466 17.8483 14.4246 17.7869 14.7068C17.7256 14.9891 17.6519 15.4524 17.5844 16.0016C17.5169 16.5507 17.4495 17.2042 17.431 17.7258C17.4115 18.106 17.4115 18.4869 17.431 18.8671C17.4464 19.0942 17.4464 19.1739 17.4648 19.404C17.4889 19.7482 17.5351 20.0905 17.6029 20.4288C17.6821 20.7832 17.7972 21.1286 17.9465 21.4596C18.074 21.7911 18.2509 22.1014 18.4711 22.38C18.576 22.5034 18.7061 22.6029 18.8527 22.6717C18.9994 22.7405 19.159 22.7771 19.321 22.7789C19.7639 22.7811 20.2008 22.6758 20.5942 22.4721C20.9947 22.2664 21.3248 21.9459 21.5422 21.5517C21.773 21.1106 21.9344 20.6367 22.0209 20.1465C22.1151 19.6573 22.1583 19.1597 22.1497 18.6616C22.1497 18.0664 22.1282 17.284 22.0914 16.8207C22.0546 16.3575 22.0117 16.247 22.0239 16.2071C22.0362 16.1672 22.1068 16.1856 22.3307 16.2071C22.5547 16.2286 22.883 16.2777 23.4475 16.3237C24.1613 16.3921 24.8781 16.4228 25.5951 16.4157C26.362 16.4053 27.1266 16.3304 27.8809 16.1918C28.4088 16.089 28.9311 15.959 29.4456 15.8021C29.7778 15.6893 30.1317 15.6546 30.4795 15.7009C30.9428 15.7736 31.4008 15.8761 31.8509 16.0077C32.2358 16.1386 32.6412 16.1989 33.0475 16.1856C33.5403 16.1428 34.0214 16.0118 34.468 15.7991C34.8552 15.637 35.1921 15.3743 35.4436 15.0382C35.6005 14.8023 35.671 14.5194 35.643 14.2374C35.6391 14.1523 35.6068 14.071 35.5511 14.0064C35.4955 13.9419 35.4198 13.8979 35.3362 13.8815C35.084 13.8298 34.8226 13.8457 34.5784 13.9275C34.2882 14.0382 34.0071 14.1716 33.7378 14.3264C33.4746 14.4761 33.183 14.5691 32.8818 14.5995C32.6884 14.5924 32.5038 14.5175 32.3602 14.3878C32.2467 14.2988 32.1915 14.2558 32.1945 14.2129C32.1976 14.1699 32.262 14.1331 32.3786 14.038C32.551 13.8975 32.714 13.7458 32.8664 13.5839C33.1004 13.361 33.2881 13.0941 33.4187 12.7985C33.5374 12.4407 33.5915 12.0646 33.5782 11.6879C33.5861 11.3151 33.5407 10.9432 33.4432 10.5834C33.3369 10.2389 33.1521 9.92379 32.9033 9.66292C32.6168 9.35695 32.2685 9.11537 31.8816 8.95419C31.479 8.79161 31.0443 8.72441 30.6114 8.75784C30.1707 8.79242 29.7431 8.92446 29.3597 9.14441C28.9375 9.3698 28.5691 9.68378 28.2797 10.0649C28.0288 10.4334 27.8613 10.8522 27.7888 11.2921C27.696 11.7026 27.6752 12.1262 27.7274 12.5439C27.792 12.8829 27.9156 13.2079 28.0925 13.5042C28.2367 13.7557 28.3595 13.9091 28.3625 14.0472C28.3656 14.1853 28.249 14.3172 28.0557 14.4123C27.8375 14.5195 27.5961 14.5712 27.3531 14.5626C27.1259 14.5629 26.9033 14.4979 26.7119 14.3755C26.6045 14.2773 26.6567 14.1699 26.6782 13.8969C26.708 13.5202 26.6716 13.1412 26.5708 12.777C26.4226 12.3376 26.1937 11.9298 25.8958 11.5743C25.2582 10.7346 24.3827 10.106 23.3831 9.7703C22.9342 9.60222 22.457 9.52303 21.9779 9.53713C21.3934 9.54852 20.8197 9.69668 20.3027 9.96972C19.6631 10.3398 19.0751 10.7927 18.554 11.3166C18.014 11.829 17.5476 12.3414 17.1212 12.7586C16.7612 13.1172 16.3723 13.4456 15.9584 13.7404C15.6676 13.9675 15.3351 14.1353 14.9797 14.2344C14.7351 14.2916 14.4785 14.2668 14.2495 14.1638C14.0838 14.081 14.0194 13.9644 14.0378 13.8877C14.0562 13.811 14.1605 13.7741 14.3108 13.6453C14.5274 13.4466 14.7323 13.2356 14.9244 13.0133C15.2035 12.7106 15.4608 12.3887 15.6945 12.0499C15.8651 11.788 15.9791 11.4933 16.0289 11.1847C16.0778 10.9184 16.0726 10.6451 16.0136 10.3809C15.943 10.1152 15.8245 9.86456 15.6638 9.64144C15.4976 9.38351 15.2903 9.15448 15.0502 8.9634C14.7897 8.78374 14.4855 8.67774 14.1697 8.65659C13.7172 8.60307 13.26 8.60307 12.8075 8.65659C12.3734 8.70247 11.9491 8.81527 11.5496 8.99101C11.2277 9.13695 10.9511 9.36693 10.7488 9.65678C10.5582 9.94399 10.4027 10.253 10.2855 10.5772C10.2067 10.7736 10.1561 10.9802 10.1352 11.1908C10.1172 11.3591 10.1172 11.5288 10.1352 11.6971L10.1505 11.7124ZM31.4459 12.9059C31.6566 12.617 31.8298 12.3026 31.9614 11.9701C32.0741 11.6336 32.1067 11.2753 32.0565 10.9239C32.0336 10.7005 31.9485 10.4879 31.811 10.3103C31.7026 10.1705 31.5569 10.0641 31.3907 10.0035C31.2954 9.96173 31.1911 9.94489 31.0875 9.95455C30.9839 9.96421 30.8845 10 30.7986 10.0587C30.5333 10.2606 30.3225 10.5252 30.185 10.8288C30.0392 11.1464 29.9558 11.4891 29.9395 11.8382C29.9166 12.1617 29.9279 12.4866 29.9733 12.8077C29.9857 12.9887 30.0656 13.1584 30.1972 13.2833C30.2621 13.3504 30.3398 13.4037 30.4257 13.4401C30.5116 13.4765 30.604 13.4951 30.6973 13.495C30.8819 13.4567 31.0519 13.3674 31.1882 13.2372C31.2944 13.1438 31.3837 13.0328 31.4521 12.909L31.4459 12.9059ZM20.5298 16.7348C20.4901 16.4211 20.4171 16.1126 20.312 15.8144C20.2565 15.6388 20.1496 15.4838 20.0051 15.3695C19.91 15.3051 19.8333 15.3174 19.729 15.4002C19.5477 15.5745 19.4136 15.792 19.3394 16.0322C19.1146 16.6183 18.9661 17.2308 18.8976 17.8547C18.7895 18.6303 18.8291 19.4193 19.0142 20.1803C19.2044 20.7939 19.5756 21.0516 19.8701 20.9994C20.1647 20.9473 20.3825 20.576 20.4838 19.9686C20.5759 19.2978 20.6108 18.6203 20.5881 17.9436C20.5905 17.5398 20.569 17.1361 20.5236 16.7348H20.5298ZM23.1622 14.851C23.4986 14.7626 23.8123 14.6036 24.0826 14.3847C24.303 14.1908 24.4539 13.93 24.5121 13.6422C24.5959 13.3404 24.5906 13.0207 24.4968 12.7218C24.3626 12.4033 24.1414 12.1289 23.8586 11.9302C23.5909 11.7281 23.3042 11.5524 23.0026 11.4056C22.7603 11.2829 22.6069 11.2185 22.4964 11.1694C22.4512 11.1386 22.3977 11.1222 22.343 11.1222C22.2883 11.1222 22.2349 11.1386 22.1896 11.1694C21.9734 11.3026 21.7797 11.4693 21.6159 11.6633C21.4335 11.869 21.3133 12.1222 21.2692 12.3935C21.197 12.7945 21.2461 13.208 21.4103 13.5809C21.6281 14.0132 21.9432 14.3891 22.3307 14.6792C22.4443 14.7787 22.5814 14.8476 22.7291 14.8793C22.8767 14.911 23.03 14.9044 23.1744 14.8602L23.1622 14.851ZM12.7615 12.9734C13.1288 12.8495 13.4547 12.6265 13.7034 12.3291C13.9405 12.0027 14.0876 11.6197 14.1298 11.2185C14.1892 10.9259 14.1808 10.6236 14.1053 10.3349C14.0368 10.1268 13.9021 9.9468 13.7218 9.82245C13.5645 9.71566 13.3729 9.67186 13.1848 9.69973C12.9403 9.71297 12.7086 9.81307 12.5314 9.98199C12.3616 10.2006 12.2554 10.4617 12.2245 10.7368C12.1905 11.0187 12.1823 11.3032 12.2 11.5866C12.1969 11.9599 12.2277 12.3326 12.292 12.7003C12.3626 12.9764 12.4915 13.0532 12.7584 12.9734H12.7615Z" fill="black"/>
<path fill-rule="evenodd" clip-rule="evenodd" d="M39.3431 3.37954C38.9389 3.79353 38.6657 4.31751 38.5577 4.88596C38.4278 5.72421 38.4622 6.57972 38.6589 7.40483C38.861 8.17619 39.1676 8.91631 39.5702 9.60463C39.9202 10.3138 40.3718 10.9681 40.9109 11.5467C41.4754 12.1082 42.1903 12.5439 42.3958 12.8108C42.6014 13.0777 42.2915 13.182 41.8589 13.3109C41.2519 13.4729 40.6573 13.6779 40.0795 13.9245C39.165 14.308 38.3226 14.8444 37.5882 15.5107C36.9554 16.1574 36.4789 16.9403 36.1953 17.7994C35.9773 18.3871 35.8944 19.0163 35.9529 19.6403C36.004 20.292 36.1724 20.9291 36.4499 21.521C36.7459 22.1782 37.2434 22.7241 37.8705 23.0796C38.6391 23.4854 39.5077 23.6631 40.374 23.5919C41.2194 23.5024 42.0245 23.1842 42.7026 22.6715C43.3854 22.159 43.959 21.5154 44.3901 20.7785C44.9112 19.8968 45.339 18.9632 45.6664 17.9927C46.0254 16.9711 46.3076 15.8972 46.4856 15.2867C46.5544 14.9744 46.6681 14.6737 46.823 14.3939C46.897 14.2668 47.0028 14.1611 47.1299 14.0871C47.2748 14.0269 47.4301 13.9956 47.587 13.9951C47.7409 13.9617 47.9016 13.9834 48.0411 14.0564C48.173 14.1485 48.2742 14.3387 48.5565 14.6056C48.9215 14.936 49.3242 15.2223 49.7561 15.4585C50.166 15.6743 50.5994 15.8421 51.0478 15.9586C51.4067 16.07 51.7839 16.1107 52.1584 16.0783C52.6011 16.0277 53.0348 15.9162 53.447 15.7469C53.7627 15.6142 54.0614 15.4443 54.3367 15.2407C54.5177 15.1057 54.5607 15.0413 54.6435 15.0382C54.7777 15.0572 54.9035 15.1147 55.0056 15.2039C55.1932 15.3469 55.3888 15.479 55.5916 15.5996C55.8359 15.7253 56.0944 15.821 56.3616 15.885C56.5878 15.9494 56.8234 15.9743 57.0581 15.9586C57.2585 15.9416 57.4525 15.8797 57.6257 15.7776C57.8176 15.6654 57.9914 15.5247 58.1411 15.3603C58.3037 15.1824 58.4479 14.9738 58.5983 14.851C58.7092 14.7485 58.8553 14.6925 59.0063 14.6946C59.1558 14.6907 59.3043 14.719 59.442 14.7774C59.611 14.8599 59.7638 14.9721 59.893 15.1088C60.074 15.2867 60.3102 15.5414 60.5587 15.75C60.7624 15.9335 61.0015 16.0734 61.2613 16.1611C61.3411 16.1819 61.4257 16.1727 61.4991 16.1354C61.5726 16.0981 61.6299 16.0352 61.6602 15.9586C61.8067 15.6824 61.9102 15.3855 61.967 15.0781C62.0682 14.6363 62.1787 14.0227 62.3075 13.4336C62.4096 12.8984 62.5722 12.3765 62.7923 11.8781C62.9245 11.5764 63.1519 11.3264 63.4397 11.1663C63.5321 11.1201 63.634 11.0961 63.7373 11.0961C63.8406 11.0961 63.9425 11.1201 64.0349 11.1663C64.2757 11.2638 64.4932 11.4113 64.673 11.5989C64.8239 11.7964 64.9458 12.0143 65.035 12.2463C65.1578 12.4917 65.3173 12.774 65.4431 13.0685C65.561 13.3412 65.6555 13.6235 65.7254 13.9122C65.7643 14.1319 65.8196 14.3483 65.891 14.5596C65.982 14.7942 66.1116 15.012 66.2745 15.2039C66.4095 15.3419 66.5169 15.3511 66.6826 15.2039C66.9052 14.9895 67.0935 14.7422 67.241 14.4706C67.3933 14.2004 67.5069 13.9102 67.5785 13.6085C67.6429 13.3324 67.6613 13.0777 67.7411 12.8353C67.8143 12.6128 67.9265 12.405 68.0724 12.2217C68.1798 12.0898 68.2565 12.0591 68.3547 12.0744C68.4529 12.0898 68.5756 12.1542 68.7474 12.3813C68.9192 12.6083 69.1462 12.9949 69.3856 13.3937C69.6249 13.7926 69.8795 14.1945 70.1035 14.5013C70.2934 14.7664 70.5115 15.0102 70.7539 15.2284C70.9787 15.4443 71.2353 15.6244 71.5148 15.7623C71.7295 15.8545 71.9625 15.8965 72.1959 15.885C72.4032 15.8963 72.6078 15.8332 72.7727 15.707C73.0195 15.4887 73.2426 15.2449 73.4385 14.9799C73.6442 14.7098 73.8709 14.4564 74.1165 14.2221C74.2473 14.0927 74.4122 14.0033 74.592 13.9644C74.6687 13.9644 74.635 14.0411 74.6473 14.1761C74.6737 14.3599 74.7275 14.5388 74.8068 14.7068C74.9101 14.9212 75.0312 15.1264 75.1688 15.3205C75.3217 15.5659 75.5195 15.7803 75.7518 15.9525C76.0196 16.1224 76.3192 16.2361 76.6323 16.2869C76.9211 16.3486 77.219 16.3538 77.5098 16.3022C77.8041 16.2535 78.0827 16.1357 78.3228 15.9586C78.524 15.7815 78.6968 15.5745 78.8352 15.345C78.9733 15.1296 79.1382 14.9327 79.3261 14.759C79.5017 14.6071 79.7127 14.5016 79.9397 14.4522C80.1867 14.4082 80.4374 14.3887 80.6883 14.3939C80.9657 14.3965 81.2426 14.3676 81.5136 14.308C81.7713 14.2405 81.9953 14.1178 81.9922 13.9582C81.9891 13.7987 81.759 13.5993 81.4798 13.5011C81.1884 13.4201 80.8862 13.3849 80.584 13.3968C80.3425 13.3991 80.1013 13.3806 79.863 13.3416C79.8082 13.3369 79.7552 13.3195 79.7083 13.2907C79.6615 13.262 79.622 13.2226 79.593 13.1759C79.547 13.1022 79.5224 13.0133 79.4979 12.6451C79.4761 12.1172 79.4186 11.5914 79.3261 11.0712C79.2237 10.5928 79.05 10.1326 78.8106 9.70588C78.6761 9.43932 78.4856 9.20491 78.2522 9.01863C78.0459 8.86187 77.8085 8.75099 77.5558 8.69342C77.2971 8.63605 77.0305 8.62256 76.7673 8.65353C76.4864 8.69411 76.2186 8.79912 75.9849 8.96034C75.612 9.18133 75.273 9.45519 74.9786 9.77337C74.7243 10.1072 74.5178 10.4748 74.365 10.8656C74.1533 11.3136 73.8588 11.8812 73.6502 12.3199C73.4415 12.7586 73.3219 13.0624 73.1899 13.3231C73.0758 13.5538 72.9347 13.7701 72.7696 13.9674C72.6394 14.1374 72.4655 14.2689 72.2665 14.3479C72.0738 14.4092 71.8669 14.4092 71.6743 14.3479C71.5112 14.2969 71.3725 14.1877 71.2847 14.0411C71.149 13.7429 71.0352 13.4353 70.9441 13.1207C70.7324 12.507 70.3551 11.5069 70.1372 10.9055C69.9194 10.3042 69.8642 10.1201 69.8089 9.98507C69.783 9.91481 69.7421 9.851 69.6892 9.79803C69.6362 9.74507 69.5724 9.70421 69.5021 9.67827C69.2385 9.55617 68.963 9.46159 68.6799 9.396C68.4526 9.33666 68.2124 9.34953 67.9927 9.43282C67.714 9.53688 67.4556 9.68843 67.2287 9.88076C66.9992 10.0932 66.782 10.3185 66.5783 10.5558C66.3942 10.749 66.2408 10.8626 66.115 10.8626C65.9892 10.8626 65.8941 10.703 65.6824 10.4975C65.4094 10.2226 65.0852 10.0037 64.7282 9.85314C64.2941 9.6875 63.8299 9.61536 63.366 9.64145C62.9652 9.6544 62.5739 9.76724 62.2278 9.96973C61.9688 10.1405 61.7702 10.3885 61.6602 10.6785C61.5405 10.9577 61.47 11.2921 61.3534 11.5774C61.2249 11.8601 61.0686 12.1294 60.887 12.3813C60.7752 12.57 60.6194 12.7289 60.433 12.8445C60.244 12.9266 60.0323 12.9397 59.8347 12.8813C59.572 12.8138 59.3129 12.7329 59.0585 12.639C58.8473 12.5467 58.6141 12.5169 58.3866 12.5531C58.1777 12.645 58.0104 12.8111 57.9171 13.0194C57.773 13.2649 57.6257 13.5931 57.4815 13.8079C57.3801 13.9879 57.2181 14.126 57.0243 14.1975C56.9322 14.232 56.834 14.247 56.7358 14.2417C56.6376 14.2364 56.5416 14.211 56.4537 14.1669C56.2565 14.037 56.1102 13.843 56.0395 13.6177C55.9681 13.3908 55.9461 13.1512 55.9751 12.9151C55.9927 12.686 56.0531 12.4623 56.153 12.2555C56.2624 12.0362 56.421 11.8451 56.6163 11.6971C56.8434 11.5449 57.0992 11.4405 57.368 11.3903C57.7243 11.3104 58.0848 11.251 58.4479 11.2123C58.7914 11.1942 59.1313 11.1345 59.4604 11.0344C59.7304 10.9439 59.9661 10.7725 60.1354 10.5435C60.2274 10.3778 60.1354 10.2551 60.0218 10.1232C59.8875 9.96535 59.7107 9.84931 59.5125 9.78872C59.1854 9.72373 58.8515 9.70002 58.5185 9.71815C58.0827 9.70628 57.6466 9.72988 57.2146 9.78872C56.8509 9.85473 56.5013 9.98236 56.1806 10.1661C55.8925 10.3227 55.6264 10.5166 55.3891 10.7429C55.196 10.9387 55.0345 11.1633 54.9105 11.4087C54.7614 11.69 54.6292 11.9799 54.5147 12.2769C54.395 12.5837 54.2999 12.8906 54.2355 13.09C54.1942 13.2682 54.1063 13.4323 53.9808 13.5655C53.7532 13.8143 53.4844 14.0218 53.1862 14.1791C52.855 14.3484 52.4968 14.4585 52.1277 14.5044C51.8885 14.5442 51.6431 14.5253 51.4129 14.4491C51.2365 14.3749 51.0807 14.2591 50.9588 14.1116C50.8085 13.9521 50.6366 13.7435 50.6704 13.6238C50.7041 13.5042 50.9373 13.4796 51.2472 13.3753C51.6145 13.2461 51.9616 13.0653 52.2781 12.8384C52.6097 12.5925 52.9042 12.3001 53.1525 11.9701C53.4061 11.6586 53.5977 11.3014 53.717 10.9178C53.8046 10.578 53.7993 10.2209 53.7016 9.88383C53.63 9.62446 53.4914 9.38851 53.2997 9.19965C53.1293 9.04489 52.9317 8.92316 52.7168 8.84068C52.4916 8.74705 52.2599 8.67014 52.0234 8.61058C51.7988 8.55478 51.5674 8.53102 51.3362 8.54002C51.0256 8.54776 50.717 8.58995 50.4157 8.66581C50.0772 8.75394 49.7551 8.89585 49.4616 9.08613C49.1294 9.28757 48.8277 9.53553 48.5657 9.82246C48.3986 10.0444 48.2623 10.288 48.1607 10.5466C48.0411 10.7797 47.8877 11.016 47.811 11.2185C47.7541 11.3757 47.727 11.5422 47.7312 11.7093C47.7312 11.8351 47.7312 11.918 47.6422 11.9487C47.5225 11.9705 47.3999 11.9705 47.2802 11.9487C47.185 11.9498 47.0901 11.9384 46.9979 11.9149C46.9427 11.8873 46.9366 11.8382 46.9059 11.6879C46.8752 11.5375 46.8261 11.289 46.7678 10.8319C46.7095 10.3747 46.6359 9.70895 46.5101 8.97261C46.3828 8.23625 46.2169 7.50709 46.0131 6.78815C45.8631 6.23597 45.6575 5.70041 45.3995 5.1897C45.1719 4.74768 44.8906 4.33548 44.5619 3.96247C44.2695 3.63287 43.9436 3.33467 43.5893 3.07273C43.3633 2.89263 43.1173 2.73923 42.856 2.61559C42.6175 2.50913 42.362 2.44577 42.1013 2.42844C41.7492 2.39634 41.3949 2.39634 41.0428 2.42844C40.7529 2.4595 40.4717 2.54595 40.2144 2.68309C39.8855 2.86254 39.5906 3.09826 39.3431 3.37954ZM76.5525 13.136C76.7632 13.181 76.9763 13.2138 77.1907 13.2342C77.2689 13.2407 77.3475 13.2286 77.4201 13.1987C77.4927 13.1688 77.557 13.1221 77.6079 13.0624C77.6754 12.958 77.654 12.8261 77.6448 12.6206C77.6356 12.415 77.6448 12.1419 77.6264 11.8658C77.6221 11.6045 77.5975 11.344 77.5527 11.0865C77.513 10.885 77.4459 10.6899 77.3533 10.5067C77.2785 10.3557 77.1824 10.2162 77.068 10.0925C76.9897 10.0019 76.8892 9.93323 76.7765 9.89303C76.7151 9.89303 76.7151 9.96666 76.6415 10.0741C76.5184 10.2145 76.4037 10.362 76.2979 10.5159C76.1703 10.7443 76.0606 10.9823 75.9696 11.2277C75.8769 11.4378 75.796 11.6529 75.7272 11.872C75.7053 12.0232 75.6735 12.1728 75.6321 12.3199C75.568 12.4245 75.486 12.5169 75.3897 12.593C75.2859 12.6831 75.2102 12.8014 75.1719 12.9335C75.1719 13.044 75.2271 13.1268 75.3775 13.1544C75.5711 13.1768 75.7667 13.1768 75.9604 13.1544C76.157 13.1299 76.3559 13.1299 76.5525 13.1544V13.136ZM50.2071 11.7462C50.4535 11.703 50.6964 11.6426 50.9342 11.5652C51.1832 11.4852 51.413 11.3546 51.6092 11.1816C51.7882 11.011 51.9248 10.8009 52.0081 10.568C52.0695 10.3886 52.0945 10.1988 52.0817 10.0096C52.0916 9.84945 52.0449 9.6909 51.9498 9.56168C51.8168 9.42684 51.6472 9.33402 51.462 9.29476C51.2593 9.2378 51.0435 9.24967 50.8483 9.32851C50.5937 9.42896 50.3726 9.59909 50.2102 9.8194C50.0447 10.0582 49.9222 10.324 49.8482 10.6048C49.7807 10.838 49.7622 10.9914 49.7285 11.1049C49.6839 11.2007 49.6659 11.3067 49.6763 11.4117C49.7076 11.5308 49.7738 11.6377 49.8666 11.7186C49.9463 11.783 50.0169 11.7768 50.1948 11.7462H50.2071ZM41.5859 21.1927C42.1656 20.6891 42.6581 20.093 43.0432 19.4286C43.4251 18.7473 43.7336 18.0274 43.9636 17.2809C44.1594 16.7161 44.3092 16.1364 44.4116 15.5475C44.4862 15.211 44.4862 14.8623 44.4116 14.5258C44.341 14.3141 44.2121 14.2374 43.7028 14.354C42.826 14.5798 41.9874 14.9345 41.2146 15.4064C40.103 16.0519 39.0842 16.8456 38.1865 17.7657C37.7061 18.2376 37.4167 18.8701 37.3734 19.5421C37.3316 19.9167 37.41 20.295 37.5974 20.6221C37.8338 21.0373 38.1676 21.389 38.57 21.6468C39.0059 21.9139 39.5207 22.0223 40.0273 21.9536C40.6109 21.8511 41.1535 21.5851 41.592 21.1866L41.5859 21.1927ZM44.6355 11.6419C44.7212 10.989 44.751 10.3301 44.7245 9.67213C44.7101 9.02498 44.633 8.38075 44.4944 7.74846C44.3511 6.98623 44.1152 6.24439 43.7918 5.53945C43.5281 5.01016 43.1369 4.5547 42.6536 4.21405C42.3442 3.97449 41.9748 3.82481 41.5859 3.78146C41.4264 3.76928 41.2663 3.79393 41.1178 3.85352C40.9694 3.9131 40.8367 4.00601 40.7299 4.12508C40.4288 4.46288 40.2382 4.88469 40.1838 5.33389C40.128 5.92892 40.1705 6.52907 40.3096 7.1103C40.4311 7.7564 40.6374 8.38362 40.9232 8.97568C41.2279 9.56506 41.5973 10.1187 42.0246 10.6263C42.3147 10.9918 42.6593 11.3105 43.0463 11.5713C43.3799 11.8013 43.7459 11.9802 44.1324 12.1021C44.4208 12.1726 44.5619 12.1021 44.6447 11.6419H44.6355Z" fill="black"/>
<path d="M25.0215 30.1024V26.8195H25.6934V29.544H27.3532V30.1024H25.0215Z" fill="black"/>
<path d="M30.1268 28.4671C30.1183 28.1762 30.1706 27.8868 30.2802 27.6172C30.3548 27.448 30.4586 27.2933 30.587 27.1601C30.7081 27.03 30.8542 26.9256 31.0165 26.8533C31.2433 26.7609 31.4866 26.716 31.7313 26.7214C31.9475 26.7121 32.1631 26.7477 32.3648 26.8258C32.5665 26.9039 32.7499 27.023 32.9033 27.1754C33.1868 27.5352 33.3409 27.9799 33.3409 28.4379C33.3409 28.8959 33.1868 29.3406 32.9033 29.7004C32.7518 29.8538 32.5697 29.9735 32.3688 30.0517C32.1679 30.13 31.9528 30.165 31.7375 30.1545C31.5206 30.1652 31.3038 30.1306 31.101 30.053C30.8981 29.9754 30.7137 29.8563 30.5594 29.7035C30.2553 29.3621 30.0987 28.9143 30.1237 28.4579L30.1268 28.4671ZM30.8171 28.4456C30.794 28.7526 30.887 29.057 31.0779 29.2985C31.1618 29.3898 31.2637 29.4627 31.3773 29.5126C31.4908 29.5625 31.6135 29.5882 31.7375 29.5882C31.8615 29.5882 31.9842 29.5625 32.0977 29.5126C32.2112 29.4627 32.3132 29.3898 32.3971 29.2985C32.5632 29.0428 32.6516 28.7444 32.6516 28.4395C32.6516 28.1345 32.5632 27.8361 32.3971 27.5804C32.3112 27.4904 32.2079 27.4187 32.0934 27.3697C31.979 27.3208 31.8558 27.2955 31.7313 27.2955C31.6069 27.2955 31.4837 27.3208 31.3693 27.3697C31.2548 27.4187 31.1515 27.4904 31.0656 27.5804C30.8784 27.8259 30.7878 28.1316 30.8109 28.4395L30.8171 28.4456Z" fill="black"/>
<path d="M36.3028 30.1024V26.7919H36.9501L38.3154 29.0101V26.7919H38.9352V30.1024H38.2633L36.9225 27.9271V30.1024H36.3028Z" fill="black"/>
<path d="M42.0799 26.7919H43.3072C43.5186 26.784 43.7302 26.8046 43.9361 26.8533C44.1263 26.9091 44.298 27.0151 44.4331 27.1601C44.5737 27.3143 44.6784 27.4976 44.7399 27.697C44.8185 27.9501 44.8548 28.2144 44.8473 28.4794C44.8522 28.7185 44.818 28.9569 44.7461 29.185C44.6764 29.4046 44.5555 29.6044 44.3933 29.7679C44.2592 29.8916 44.0986 29.9829 43.9238 30.0349C43.7318 30.0859 43.5334 30.1086 43.3348 30.1024H42.0769V26.7919H42.0799ZM42.7518 27.3503V29.544H43.2519C43.3866 29.5474 43.5213 29.5371 43.6539 29.5133C43.754 29.4906 43.8468 29.4431 43.9238 29.3752C44.0061 29.2886 44.0661 29.1833 44.0987 29.0684C44.1506 28.8682 44.1734 28.6615 44.1662 28.4548C44.1741 28.2562 44.1514 28.0575 44.0987 27.8657C44.0623 27.7446 43.997 27.634 43.9085 27.5436C43.8226 27.4642 43.7164 27.41 43.6017 27.3871C43.4198 27.362 43.2361 27.3517 43.0525 27.3564L42.7518 27.3503Z" fill="black"/>
<path d="M47.719 28.4671C47.7106 28.1762 47.7628 27.8868 47.8724 27.6172C47.947 27.448 48.0509 27.2933 48.1792 27.1601C48.3003 27.03 48.4464 26.9256 48.6087 26.8533C48.8355 26.7609 49.0788 26.716 49.3236 26.7214C49.5397 26.7121 49.7554 26.7477 49.9571 26.8258C50.1588 26.9039 50.3421 27.023 50.4956 27.1754C50.779 27.5352 50.9331 27.9799 50.9331 28.4379C50.9331 28.8959 50.779 29.3406 50.4956 29.7004C50.1753 29.9917 49.758 30.1531 49.3251 30.1531C48.8922 30.1531 48.4749 29.9917 48.1547 29.7004C48.003 29.532 47.8861 29.3352 47.8108 29.1215C47.7355 28.9077 47.7033 28.6811 47.7159 28.4548L47.719 28.4671ZM48.4093 28.4456C48.3862 28.7526 48.4793 29.057 48.6701 29.2985C48.7505 29.3953 48.8514 29.473 48.9654 29.5261C49.0795 29.5791 49.2039 29.6062 49.3297 29.6053C49.4542 29.6093 49.578 29.5855 49.6921 29.5356C49.8062 29.4857 49.9078 29.411 49.9894 29.3169C50.1786 29.07 50.2703 28.762 50.2471 28.4517C50.2713 28.1461 50.1817 27.8424 49.9955 27.5988C49.9121 27.5059 49.8091 27.4327 49.694 27.3844C49.5789 27.3361 49.4544 27.314 49.3297 27.3196C49.2049 27.315 49.0805 27.3379 48.9655 27.3867C48.8504 27.4355 48.7475 27.5089 48.664 27.6019C48.4768 27.8474 48.3862 28.1531 48.4093 28.4609V28.4456Z" fill="black"/>
<path d="M53.895 30.1024V26.7919H54.5455L55.9077 29.0101V26.7919H56.5274V30.1024H55.8586L54.5148 27.9271V30.1024H53.895Z" fill="black"/>
</svg>
